<svg xmlns="http://www.w3.org/2000/svg" width="28" height="28" viewBox="0 0 28 28" fill="none">
<path d="M4.375 21C3.89175 21 3.5 20.6082 3.5 20.125C3.5 19.6418 3.89175 19.25 4.375 19.25H23.625C24.1082 19.25 24.5 19.6418 24.5 20.125C24.5 20.6082 24.1082 21 23.625 21H4.375ZM4.375 14.875C3.89175 14.875 3.5 14.4832 3.5 14C3.5 13.5168 3.89175 13.125 4.375 13.125H19.125C19.6082 13.125 20 13.5168 20 14C20 14.4832 19.6082 14.875 19.125 14.875H4.375ZM4.375 8.75C3.89175 8.75 3.5 8.35825 3.5 7.875C3.5 7.39175 3.89175 7 4.375 7H23.625C24.1082 7 24.5 7.39175 24.5 7.875C24.5 8.35825 24.1082 8.75 23.625 8.75H4.375Z" fill="white"/>
</svg>